<?xml version="1.0" encoding="UTF-8"?>
<svg id="Fondo" xmlns="http://www.w3.org/2000/svg" version="1.1" viewBox="0 0 1920 1080">
  <defs>
    <style>
      .cls-1 {
        fill: #0b7296;
      }

      .cls-1, .cls-2, .cls-3 {
        stroke-width: 0px;
      }

      .cls-4 {
        fill: #000;
        font-family: TempusSansITC, 'Tempus Sans ITC';
        font-size: 100px;
      }

      .cls-2 {
        fill: #78a73b;
      }

      .cls-3 {
        fill: #fefefe;
      }
    </style>
  </defs>
  <g>
    <path class="cls-1" d="M1215.04,536.36c2.26-26.2,1.77-52.3-3.61-78.11-14.91-71.56-52.03-128.18-113.62-168.3-11.92-7.76-24.79-13.58-37.39-20.01-3.81-1.94-4.25.56-5.13,2.8-6,15.37-10.56,31.21-14.84,47.12-3.76,13.98-7.01,28.09-10.76,42.07-10.28,38.29-16.86,77.1-17.01,116.85-.03,8,.46,15.97,2.08,23.85,2.88,13.99,10.11,25.55,19.72,35.85,14.49,15.53,29.44,30.61,44.46,45.63,8.31,8.31,16.59,16.63,25.27,24.56,13.55,12.39,29.64,19.48,47.32,23.43,8.93,2,17.87,3.96,26.77,6.11,4.39,1.06,8.52,2.9,12.35,5.31,12.47,7.85,12.43,23.1-.45,30.46-10.62,6.07-22.65,7.47-34.61,8.67-1.34.13-2.3-.41-2.88-1.53-6.44-12.4-17.76-17.21-30.55-20.12-32.96-7.49-60.43-24.74-84.25-48.25-11.25-11.11-23.24-21.45-33.46-33.63-24.92-29.68-31.91-63.23-22.53-100.52,6.18-24.56,15.07-48.26,22.93-72.29,8.75-26.74,15.1-54.16,23.52-80.99,5.18-16.5,9.84-33.17,14.66-49.78.74-2.55,1.11-5.2,1.59-7.82.18-.97.28-2.16-.91-2.54-1.64-.52-1.94.96-2.25,2-1.98,6.53-4.07,13.03-5.78,19.63-10.35,39.82-23.64,78.62-39.05,116.76-7.65,18.95-13.31,38.63-19.05,58.26-6.15,21.04-8.96,42.36-7.18,64.26.61,7.52,3.23,14.56,4.88,21.78-1.13.66-1.76,0-2.32-.47-24.35-21.16-44.06-45.37-51.12-77.87-3.65-16.78-3.5-33.72-1.95-50.71,1.68-18.43,5.68-36.46,9.28-54.57.51-2.55.63-5.18.56-7.84-4.72,19.42-10.09,38.65-13.33,58.39-2.54,15.54-3.72,31.08-1.5,46.73,3.18,22.5,10.99,43.44,21.91,63.28,3.9,7.09,7.32,14.53,13.28,20.48-10.2-3.88-18.49-10.48-26.47-17.47-7.98-7-15.19-14.79-22.34-23.75-.45,3.39,1.68,4.37,2.71,5.9,10.72,15.98,25.04,28.32,39.88,40.28,8.16,6.58,17.38,11.19,26.23,16.51,9.74,5.86,18.65,12.78,26.87,20.79-3.39-1.2-6.82-2.29-10.16-3.63-15.12-6.05-30-3.23-45.05.63-21.5,5.52-43.2,9.85-65.63,7.47-2.81-.3-5.61-.63-8.45-.71,7.75,2.78,15.79,3.53,23.97,3.86,17.94.71,35.48-2.92,53.18-4.64,23.56-2.29,45.34,1.58,65.2,15.13,10.46,7.14,21.01,14.12,30.96,21.95,21.39,16.83,45.87,27.31,71.65,35.15,9.65,2.93,18.76,6.9,26.17,14,1.74,1.67,3.82,3.17,4.34,7.11-14.54.24-28.9.61-43.26.67-9.83.04-19.66-.32-29.48-.57-7.18-.18-13.62-2.32-19.53-6.6-13.34-9.67-26.71-19.27-40.85-27.81-20.66-12.48-43.22-18.77-66.92-21.45-24.94-2.82-49.15-8.23-72.62-17.38-32.67-12.73-34.27-42.09-25.38-63.43,3.41-8.18,7.82-15.88,12.76-23.14,19.17-28.19,28.65-59.68,33.46-93.07,3.82-26.52,8.13-52.96,9.51-79.77,1.26-24.63,2.63-49.25,1.42-73.92-.34-6.97-1.21-13.92-2.65-20.78-.66-3.13-1.88-4.36-5.46-3.61-55.2,11.58-102.05,37.56-139.73,79.87-29.08,32.64-48.33,70.39-59.1,112.51-6.36,24.86-8.16,50.24-6.37,75.86.23,3.32.45,6.65.68,9.97-.6,0-1.2.02-1.81.03-9.85-71.43,6.69-135.89,51.51-192.61,26.65-33.73,59.99-58.84,99.97-74.9,25.72-10.33,52.37-16.24,80.16-16.72,13.49-.23,26.98-.75,40.47.07,18.62,1.14,37.28,2.29,55.67,5.39,87.29,14.72,147.1,65.01,184.15,143.95,17.71,37.73,21.77,77.91,19,119.05-.47,6.97-.61,13.98-1.93,20.86-.6,0-1.2,0-1.8,0ZM981.29,406.95c-4.89,2.67-8.28,7.11-12.52,10.56-10.26,8.36-18.87,18.05-24.14,30.36-8.92,20.83-8.86,41.47,1.58,61.81.62,1.2.77,3.43,2.78,2.85,1.7-.49,1.36-2.45,1.39-3.92.15-6.73,1.79-12.96,5.24-18.86,3.35-5.71,6.54-11.53,9.73-17.33,5.45-9.93,8.82-20.7,10.52-31.99,1.67-11.12,5.02-21.97,5.63-33.27.12-.2.24-.39.36-.59-.19.13-.38.26-.57.38Z"/>
    <path class="cls-2" d="M997.97,669.89c-5.81.51-10.54-2.06-15.74-2.18-19.06-.43-37.99,1.18-56.76,3.97-30.56,4.53-60.15,2.57-88.26-11.13-20.39-9.94-35.11-25.92-46.44-45.23-11.39-19.42-16.93-40.39-15.26-62.92,1.06-14.29,4.66-28.12,9.56-41.62,4.94-13.63,9.76-27.3,11.86-41.75.06-.43.45-.82.96-1.72,4.26,11.15,6.56,22.34,8.99,33.51,4.79,22.08,5.05,44.66,7.51,67,2.16,19.57,8.54,37.97,20.45,53.46,15.53,20.19,37,29.68,62.69,28.37,8.8-.45,17.54-2.03,26.33-2.67,23.48-1.72,45.24,3.86,65.37,15.98.57.34,1.15.69,1.66,1.11,2.24,1.82,4.47,3.67,7.09,5.83Z"/>
    <path class="cls-2" d="M891.6,683.58h10.31c.07.35.13.7.2,1.05-2.39.37-4.78,1.04-7.17,1.07-31.79.4-63.56,2.55-95.38,1.36-16.06-.6-31.49-2.66-45.68-11.7-18.2-11.59-29.05-27.89-34.92-48.12-1.11-3.81-2.16-7.64-3.23-11.43,1.59-.72,2.03.48,2.51,1.15,14.06,19.38,33.77,29.77,56.53,34.84,18.58,4.14,36.63,9.79,54.25,16.93,23.81,9.65,48.46,14.22,74.19,12.38.33-.02.7-.13.99-.03,1.3.46,3.81-1.3,3.76,1.34-.04,2.06-2.18,1.84-3.95,1.77-4.13-.16-8.28-.05-12.42-.05,0-.19,0-.37,0-.56ZM808.11,683.02c5.31,0,10.62,0,15.93,0,5.13,0,10.16-.69,15.62-1.54-11.3-7.44-21.44-2.34-31.55,1.54Z"/>
    <path class="cls-2" d="M1215.04,536.36c.6,0,1.2,0,1.8,0-.43,8.32-2.85,16.2-5.56,24.06,1.25-8.02,2.51-16.04,3.76-24.07Z"/>
    <path class="cls-2" d="M687.84,531.28c.6-.01,1.2-.02,1.81-.03,1.24,7.7,2.48,15.39,3.72,23.09-2.74-7.49-4.72-15.14-5.53-23.06Z"/>
    <path class="cls-2" d="M981.5,407.16c-.61,11.31-3.96,22.15-5.63,33.27-1.69,11.29-5.06,22.06-10.52,31.99-3.18,5.8-6.38,11.62-9.73,17.33-3.45,5.89-5.1,12.12-5.24,18.86-.03,1.48.3,3.43-1.39,3.92-2,.58-2.16-1.64-2.78-2.85-10.44-20.34-10.5-40.98-1.58-61.81,5.27-12.31,13.88-22.01,24.14-30.36,4.23-3.45,7.63-7.89,12.52-10.56l.21.2Z"/>
    <path class="cls-2" d="M981.29,406.95c.19-.13.38-.26.57-.38-.12.2-.24.39-.36.59,0,0-.21-.2-.21-.2Z"/>
    <path class="cls-3" d="M808.11,683.02c10.11-3.88,20.25-8.98,31.55-1.54-5.46.86-10.49,1.55-15.62,1.54-5.31,0-10.62,0-15.93,0Z"/>
  </g>
  <text class="cls-4" transform="translate(637.3 807.09)"><tspan x="0" y="0">PASOS FIRMES</tspan></text>
</svg>